<svg width="97" height="59" viewBox="0 0 97 59" fill="none" xmlns="http://www.w3.org/2000/svg">
<path d="M0 0.326644H7.84918V10.2771H7.92858C9.27627 8.69139 11.0206 7.54184 14.3509 7.54184C18.0377 7.54184 21.4073 9.80142 21.4073 14.5189V28.6322H13.5579V17.8487C13.5579 15.4706 13.2804 13.8051 10.9813 13.8051C9.63321 13.8051 7.84918 14.4794 7.84918 17.7695V28.6322H0V0.326644Z" fill="#338F98"/>
<path d="M24.8428 0.326644H32.692V10.2771H32.7715C34.1194 8.69139 35.8636 7.54184 39.1938 7.54184C42.8805 7.54184 46.2504 9.80142 46.2504 14.5189V28.6322H38.4009V17.8487C38.4009 15.4706 38.1233 13.8051 35.8241 13.8051C34.4762 13.8051 32.692 14.4794 32.692 17.7695V28.6322H24.8428V0.326644Z" fill="#2EA948"/>
<path d="M49.665 8.05727H57.2376V10.7927H57.3166C58.9023 8.41348 61.2018 7.54184 64.0561 7.54184C66.2762 7.54184 68.6546 8.69139 69.6061 10.7526C69.9232 10.5148 71.509 7.54184 76.6228 7.54184C81.8955 7.54184 83.6796 11.189 83.6796 14.5189V28.6322H75.8302V17.4925C75.8302 15.5496 75.6319 13.8051 73.2531 13.8051C71.2712 13.8051 70.597 15.3515 70.597 17.4925V28.6322H62.7481V17.4925C62.7481 15.5496 62.5493 13.8051 60.1709 13.8051C58.1886 13.8051 57.5149 15.3515 57.5149 17.4925V28.6322H49.665V8.05727Z" fill="#4CB938"/>
<path d="M87.0215 28.6322H94.8708V8.05723H87.0215V28.6322Z" fill="#7DC92C"/>
<path d="M95.0759 5.53662C95.192 5.14828 95.2555 4.73676 95.2555 4.31017C95.2555 1.92991 93.3258 6.93632e-06 90.9456 6.93632e-06C88.5654 6.93632e-06 86.6357 1.92991 86.6357 4.31017C86.6357 4.73676 86.6993 5.14828 86.8154 5.53662H95.0759Z" fill="#7DC92C"/>
<path d="M16.0027 42.9282L12.6108 54.6322H10.898L8.17769 45.2119L5.35664 54.6322L3.66065 54.649L0.386215 42.9282H2.01504L4.56741 52.8523L7.38846 42.9282H9.10124L11.788 52.8187L14.3571 42.9282H16.0027ZM21.8562 54.7834C20.9942 54.7834 20.2106 54.5875 19.5053 54.1956C18.8112 53.8038 18.2627 53.2497 17.8597 52.5332C17.4679 51.8056 17.272 50.966 17.272 50.0144C17.272 49.0741 17.4735 48.2457 17.8765 47.5292C18.2907 46.8016 18.8504 46.2474 19.5557 45.8668C20.2609 45.475 21.0502 45.2791 21.9233 45.2791C22.7965 45.2791 23.5858 45.475 24.291 45.8668C24.9963 46.2474 25.5504 46.796 25.9534 47.5124C26.3676 48.2289 26.5747 49.0629 26.5747 50.0144C26.5747 50.966 26.362 51.8056 25.9366 52.5332C25.5224 53.2497 24.9571 53.8038 24.2406 54.1956C23.5242 54.5875 22.7294 54.7834 21.8562 54.7834ZM21.8562 53.44C22.4047 53.44 22.9197 53.3113 23.401 53.0538C23.8824 52.7963 24.2686 52.4101 24.5597 51.8951C24.8619 51.3802 25.0131 50.7533 25.0131 50.0144C25.0131 49.2756 24.8675 48.6487 24.5765 48.1337C24.2854 47.6188 23.9048 47.2382 23.4346 46.9919C22.9645 46.7344 22.4551 46.6057 21.9066 46.6057C21.3468 46.6057 20.8319 46.7344 20.3617 46.9919C19.9027 47.2382 19.5333 47.6188 19.2534 48.1337C18.9736 48.6487 18.8336 49.2756 18.8336 50.0144C18.8336 50.7645 18.968 51.397 19.2366 51.9119C19.5165 52.4269 19.8859 52.8131 20.3449 53.0706C20.8039 53.3169 21.3076 53.44 21.8562 53.44ZM30.2798 46.9247C30.5485 46.3986 30.9291 45.99 31.4217 45.6989C31.9255 45.4078 32.5356 45.2623 33.252 45.2623V46.8408H32.849C31.1362 46.8408 30.2798 47.7699 30.2798 49.6282V54.6322H28.7518V45.4302H30.2798V46.9247ZM40.3222 54.6322L36.712 50.5686V54.6322H35.1839V42.2062H36.712V49.5107L40.2551 45.4302H42.3876L38.0553 50.0144L42.4044 54.6322H40.3222ZM47.2514 54.7834C46.5461 54.7834 45.9136 54.6658 45.3539 54.4307C44.7942 54.1844 44.352 53.8486 44.0273 53.4232C43.7027 52.9866 43.5236 52.4885 43.49 51.9287H45.0684C45.1132 52.3877 45.3259 52.7627 45.7065 53.0538C46.0984 53.3448 46.6077 53.4904 47.2346 53.4904C47.8167 53.4904 48.2757 53.3616 48.6115 53.1042C48.9474 52.8467 49.1153 52.522 49.1153 52.1302C49.1153 51.7272 48.9362 51.4306 48.578 51.2403C48.2197 51.0388 47.6656 50.8428 46.9156 50.6525C46.2327 50.4734 45.673 50.2943 45.2364 50.1152C44.811 49.9249 44.4415 49.6506 44.1281 49.2924C43.8258 48.923 43.6747 48.4416 43.6747 47.8483C43.6747 47.3781 43.8146 46.9471 44.0945 46.5553C44.3744 46.1635 44.7718 45.8556 45.2867 45.6317C45.8017 45.3967 46.3894 45.2791 47.0499 45.2791C48.0686 45.2791 48.8914 45.5366 49.5183 46.0515C50.1452 46.5665 50.4811 47.2718 50.5258 48.1673H48.9978C48.9642 47.686 48.7683 47.2997 48.41 47.0087C48.063 46.7176 47.5928 46.5721 46.9995 46.5721C46.451 46.5721 46.0144 46.6896 45.6897 46.9247C45.3651 47.1598 45.2028 47.4677 45.2028 47.8483C45.2028 48.1505 45.2979 48.4024 45.4882 48.6039C45.6897 48.7942 45.936 48.951 46.2271 49.0741C46.5293 49.186 46.9435 49.3148 47.4697 49.4603C48.1302 49.6394 48.6675 49.8185 49.0817 49.9977C49.4959 50.1656 49.8486 50.423 50.1396 50.7701C50.4419 51.1171 50.5986 51.5705 50.6098 52.1302C50.6098 52.634 50.4699 53.0874 50.19 53.4904C49.9101 53.8934 49.5127 54.2124 48.9978 54.4475C48.494 54.6714 47.9119 54.7834 47.2514 54.7834ZM54.4629 47.1262C54.7651 46.6001 55.2129 46.1635 55.8062 45.8165C56.4108 45.4582 57.1104 45.2791 57.9052 45.2791C58.7225 45.2791 59.4613 45.475 60.1218 45.8668C60.7935 46.2586 61.3196 46.8128 61.7002 47.5292C62.0808 48.2345 62.2712 49.0573 62.2712 49.9977C62.2712 50.9268 62.0808 51.7552 61.7002 52.4829C61.3196 53.2105 60.7935 53.7758 60.1218 54.1788C59.4613 54.5819 58.7225 54.7834 57.9052 54.7834C57.1216 54.7834 56.4276 54.6098 55.823 54.2628C55.2297 53.9046 54.7763 53.4624 54.4629 52.9362V58.9981H52.9348V45.4302H54.4629V47.1262ZM60.7095 49.9977C60.7095 49.3036 60.5696 48.6991 60.2897 48.1841C60.0098 47.6692 59.6292 47.2774 59.1478 47.0087C58.6777 46.74 58.1571 46.6057 57.5862 46.6057C57.0265 46.6057 56.5059 46.7456 56.0245 47.0255C55.5544 47.2941 55.1738 47.6916 54.8827 48.2177C54.6028 48.7327 54.4629 49.3316 54.4629 50.0144C54.4629 50.7085 54.6028 51.3186 54.8827 51.8448C55.1738 52.3597 55.5544 52.7571 56.0245 53.037C56.5059 53.3057 57.0265 53.44 57.5862 53.44C58.1571 53.44 58.6777 53.3057 59.1478 53.037C59.6292 52.7571 60.0098 52.3597 60.2897 51.8448C60.5696 51.3186 60.7095 50.7029 60.7095 49.9977ZM63.8795 49.9977C63.8795 49.0573 64.0698 48.2345 64.4504 47.5292C64.8311 46.8128 65.3516 46.2586 66.0121 45.8668C66.6838 45.475 67.4282 45.2791 68.2454 45.2791C69.0514 45.2791 69.7511 45.4526 70.3444 45.7997C70.9377 46.1467 71.3799 46.5833 71.671 47.1094V45.4302H73.2158V54.6322H71.671V52.9195C71.3687 53.4568 70.9153 53.9046 70.3108 54.2628C69.7175 54.6098 69.0234 54.7834 68.2286 54.7834C67.4114 54.7834 66.6726 54.5819 66.0121 54.1788C65.3516 53.7758 64.8311 53.2105 64.4504 52.4829C64.0698 51.7552 63.8795 50.9268 63.8795 49.9977ZM71.671 50.0144C71.671 49.3204 71.531 48.7159 71.2512 48.2009C70.9713 47.686 70.5907 47.2941 70.1093 47.0255C69.6392 46.7456 69.1186 46.6057 68.5477 46.6057C67.9767 46.6057 67.4562 46.74 66.986 47.0087C66.5158 47.2774 66.1408 47.6692 65.861 48.1841C65.5811 48.6991 65.4412 49.3036 65.4412 49.9977C65.4412 50.7029 65.5811 51.3186 65.861 51.8448C66.1408 52.3597 66.5158 52.7571 66.986 53.037C67.4562 53.3057 67.9767 53.44 68.5477 53.44C69.1186 53.44 69.6392 53.3057 70.1093 53.037C70.5907 52.7571 70.9713 52.3597 71.2512 51.8448C71.531 51.3186 71.671 50.7085 71.671 50.0144ZM75.3951 50.0144C75.3951 49.0629 75.5854 48.2345 75.966 47.5292C76.3467 46.8128 76.8728 46.2586 77.5445 45.8668C78.2274 45.475 79.0054 45.2791 79.8786 45.2791C81.0092 45.2791 81.9384 45.5534 82.666 46.1019C83.4049 46.6505 83.8919 47.4117 84.1269 48.3856H82.4813C82.3246 47.8259 82.0168 47.3837 81.5578 47.0591C81.11 46.7344 80.5503 46.5721 79.8786 46.5721C79.0054 46.5721 78.3001 46.8743 77.7628 47.4789C77.2254 48.0722 76.9568 48.9174 76.9568 50.0144C76.9568 51.1227 77.2254 51.9791 77.7628 52.5836C78.3001 53.1881 79.0054 53.4904 79.8786 53.4904C80.5503 53.4904 81.11 53.3337 81.5578 53.0202C82.0056 52.7068 82.3134 52.259 82.4813 51.6768H84.1269C83.8807 52.6172 83.3881 53.3728 82.6492 53.9438C81.9104 54.5035 80.9868 54.7834 79.8786 54.7834C79.0054 54.7834 78.2274 54.5875 77.5445 54.1956C76.8728 53.8038 76.3467 53.2497 75.966 52.5332C75.5854 51.8168 75.3951 50.9772 75.3951 50.0144ZM94.7298 49.6786C94.7298 49.9697 94.713 50.2775 94.6794 50.6022H87.3245C87.3805 51.5089 87.6883 52.2198 88.2481 52.7347C88.819 53.2385 89.5075 53.4904 90.3135 53.4904C90.974 53.4904 91.5225 53.3393 91.9591 53.037C92.4069 52.7235 92.7203 52.3093 92.8994 51.7944H94.545C94.2988 52.6788 93.8062 53.4008 93.0674 53.9606C92.3285 54.5091 91.4105 54.7834 90.3135 54.7834C89.4403 54.7834 88.6567 54.5875 87.9626 54.1956C87.2797 53.8038 86.7424 53.2497 86.3506 52.5332C85.9588 51.8056 85.7628 50.966 85.7628 50.0144C85.7628 49.0629 85.9532 48.2289 86.3338 47.5124C86.7144 46.796 87.2461 46.2474 87.929 45.8668C88.6231 45.475 89.4179 45.2791 90.3135 45.2791C91.1867 45.2791 91.9591 45.4694 92.6308 45.85C93.3024 46.2307 93.8174 46.7568 94.1756 47.4285C94.545 48.089 94.7298 48.839 94.7298 49.6786ZM93.1513 49.3596C93.1513 48.7774 93.0226 48.2793 92.7651 47.8651C92.5076 47.4397 92.155 47.1206 91.7072 46.9079C91.2706 46.684 90.7836 46.5721 90.2463 46.5721C89.4739 46.5721 88.8134 46.8184 88.2649 47.3109C87.7275 47.8035 87.4197 48.4864 87.3413 49.3596H93.1513Z" fill="#ABD7EF"/>
</svg>
