<svg width="317" height="53" viewBox="0 0 317 53" fill="none" xmlns="http://www.w3.org/2000/svg">
<path d="M0 4.10669H12.06V19.3952H12.182C14.2526 16.9588 16.9328 15.1926 22.0496 15.1926C27.7143 15.1926 32.8914 18.6643 32.8914 25.9125V47.5972H20.8312V31.0287C20.8312 27.3748 20.4048 24.8159 16.8723 24.8159C14.8011 24.8159 12.06 25.8518 12.06 30.907V47.5972H0V4.10669Z" fill="#338F98"/>
<path d="M38.1699 4.10669H50.2299V19.3952H50.3522C52.4231 16.9588 55.103 15.1926 60.2198 15.1926C65.8842 15.1926 71.0619 18.6643 71.0619 25.9125V47.5972H59.0015V31.0287C59.0015 27.3748 58.575 24.8159 55.0423 24.8159C52.9713 24.8159 50.2299 25.8518 50.2299 30.907V47.5972H38.1699V4.10669Z" fill="#2EA948"/>
<path d="M76.3076 15.9845H87.9426V20.1874H88.0639C90.5004 16.5318 94.0334 15.1926 98.419 15.1926C101.83 15.1926 105.484 16.9588 106.946 20.1258C107.434 19.7604 109.87 15.1926 117.727 15.1926C125.829 15.1926 128.57 20.7963 128.57 25.9125V47.5972H116.509V30.4814C116.509 27.4963 116.205 24.8159 112.55 24.8159C109.505 24.8159 108.469 27.1918 108.469 30.4814V47.5972H96.4092V30.4814C96.4092 27.4963 96.1039 24.8159 92.4495 24.8159C89.4038 24.8159 88.3686 27.1918 88.3686 30.4814V47.5972H76.3076V15.9845Z" fill="#4CB938"/>
<path d="M133.705 47.5972H145.765V15.9845H133.705V47.5972Z" fill="#7DC92C"/>
<path d="M146.081 12.1113C146.26 11.5147 146.357 10.8824 146.357 10.2269C146.357 6.56975 143.392 3.60453 139.735 3.60453C136.078 3.60453 133.113 6.56975 133.113 10.2269C133.113 10.8824 133.211 11.5147 133.389 12.1113H146.081Z" fill="#7DC92C"/>
<path d="M157.333 52.1406H158.32V0.00031662H157.333V52.1406Z" fill="#202020"/>
<path d="M169.952 12.0361H171.922V18.4009H179.717V12.0361H181.687V26.8389H179.717V20.0596H171.922V26.8389H169.952V12.0361Z" fill="#202020"/>
<path d="M189.092 25.533C190.936 25.533 192.43 24.0815 192.43 21.4902C192.43 18.8779 190.936 17.4267 189.092 17.4267C187.246 17.4267 185.754 18.8779 185.754 21.4902C185.754 24.0815 187.246 25.533 189.092 25.533ZM189.092 15.8718C192.492 15.8718 194.296 18.3387 194.296 21.4902C194.296 24.6207 192.492 27.0879 189.092 27.0879C185.691 27.0879 183.888 24.6207 183.888 21.4902C183.888 18.3387 185.691 15.8718 189.092 15.8718Z" fill="#202020"/>
<path d="M206.446 26.8389H204.581L202.404 18.3181H202.362L200.205 26.8389H198.299L194.856 16.1203H196.806L199.232 24.8902H199.273L201.429 16.1203H203.357L205.596 24.8902H205.637L208.043 16.1203H209.868L206.446 26.8389Z" fill="#202020"/>
<path d="M217.688 21.3036C217.005 21.8012 215.678 21.8219 214.496 22.0293C213.335 22.2366 212.339 22.651 212.339 23.9574C212.339 25.1182 213.335 25.533 214.413 25.533C216.735 25.533 217.688 24.0815 217.688 23.1072V21.3036ZM220.55 26.7976C220.239 26.9842 219.845 27.0879 219.285 27.0879C218.373 27.0879 217.793 26.5901 217.793 25.4292C216.818 26.5694 215.512 27.0879 214.019 27.0879C212.07 27.0879 210.475 26.217 210.475 24.0815C210.475 21.6558 212.278 21.1378 214.102 20.7852C216.051 20.4121 217.71 20.5363 217.71 19.2095C217.71 17.6753 216.445 17.4267 215.326 17.4267C213.833 17.4267 212.734 17.8826 212.651 19.4582H210.889C210.993 16.8045 213.045 15.8718 215.429 15.8718C217.357 15.8718 219.451 16.3072 219.451 18.8155V24.3304C219.451 25.1599 219.451 25.533 220.011 25.533C220.156 25.533 220.322 25.5122 220.55 25.4292V26.7976Z" fill="#202020"/>
<path d="M222.062 16.1203H223.722V18.3802H223.763C224.613 16.6595 225.794 15.8096 227.702 15.8716V17.7376C224.861 17.7376 223.825 19.3545 223.825 22.0706V26.8389H222.062V16.1203Z" fill="#202020"/>
<path d="M233.437 25.533C235.801 25.533 236.713 23.5013 236.713 21.4902C236.713 19.3757 235.759 17.4267 233.334 17.4267C230.929 17.4267 230.12 19.4791 230.12 21.5733C230.12 23.5843 231.158 25.533 233.437 25.533ZM238.413 26.839H236.651V25.3878H236.61C236.029 26.5694 234.661 27.0879 233.189 27.0879C229.892 27.0879 228.255 24.4756 228.255 21.4485C228.255 18.4217 229.872 15.8718 233.147 15.8718C234.246 15.8718 235.821 16.2866 236.61 17.5512H236.651V12.0363H238.413V26.839Z" fill="#202020"/>
<path d="M247.183 12.0361H249.152V18.4009H256.948V12.0361H258.917V26.8389H256.948V20.0596H249.152V26.8389H247.183V12.0361Z" fill="#202020"/>
<path d="M270.529 26.839H268.871V25.1392H268.83C268.083 26.4659 266.88 27.0879 265.347 27.0879C262.527 27.0879 261.656 25.4706 261.656 23.1696V16.1205H263.419V23.3768C263.419 24.6831 264.247 25.533 265.595 25.533C267.73 25.533 268.768 24.1022 268.768 22.1743V16.1205H270.529V26.839Z" fill="#202020"/>
<path d="M280.555 21.2621C280.555 19.3758 279.726 17.4268 277.507 17.4268C275.247 17.4268 274.335 19.2718 274.335 21.3244C274.335 23.2524 275.04 25.4083 277.362 25.4083C279.684 25.4083 280.555 23.2731 280.555 21.2621ZM282.296 25.9269C282.296 29.4098 280.7 31.1929 277.32 31.1929C275.31 31.1929 272.987 30.3843 272.884 28.0417H274.646C274.729 29.3269 276.263 29.7831 277.424 29.7831C279.726 29.7831 280.638 28.1244 280.638 25.7196V25.0146H280.597C280.016 26.3206 278.606 26.9633 277.258 26.9633C274.065 26.9633 272.469 24.455 272.469 21.5317C272.469 19.0022 273.713 15.8719 277.424 15.8719C278.771 15.8719 279.974 16.4732 280.617 17.655H280.638V16.1206H282.296V25.9269Z" fill="#202020"/>
<path d="M284.759 12.0361H286.522V17.6959H286.563C287.143 16.4106 288.656 15.8716 289.943 15.8716C292.762 15.8716 293.632 17.4887 293.632 19.79V26.8389H291.87V19.5828C291.87 18.2767 291.041 17.4266 289.693 17.4266C287.558 17.4266 286.522 18.8571 286.522 20.785V26.8389H284.759V12.0361Z" fill="#202020"/>
<path d="M303.527 20.4535C303.445 18.7741 302.18 17.4267 300.438 17.4267C298.594 17.4267 297.495 18.8155 297.37 20.4535H303.527ZM305.228 23.4389C304.751 25.8025 303.051 27.0879 300.645 27.0879C297.225 27.0879 295.608 24.7245 295.504 21.4485C295.504 18.2352 297.619 15.8718 300.542 15.8718C304.336 15.8718 305.496 19.4171 305.393 22.0084H297.37C297.307 23.8743 298.366 25.533 300.708 25.533C302.159 25.533 303.175 24.828 303.487 23.4389H305.228Z" fill="#202020"/>
<path d="M308.284 23.4596C308.346 25.0352 309.714 25.533 311.166 25.533C312.264 25.533 313.757 25.2841 313.757 23.9364C313.757 22.568 312.016 22.3401 310.254 21.9463C308.512 21.5523 306.749 20.972 306.749 18.9195C306.749 16.7633 308.885 15.8718 310.751 15.8718C313.114 15.8718 315.001 16.6179 315.146 19.2303H313.384C313.26 17.8621 312.057 17.4267 310.896 17.4267C309.839 17.4267 308.616 17.7167 308.616 18.7948C308.616 20.0598 310.482 20.2669 312.119 20.661C313.882 21.0548 315.623 21.6353 315.623 23.7084C315.623 26.2587 313.239 27.0879 311.063 27.0879C308.657 27.0879 306.625 26.1133 306.521 23.4596H308.284Z" fill="#202020"/>
<path d="M169.993 32.768H172.689L177.353 45.2074L182.039 32.768H184.734V47.5708H182.868V35.2559H182.827L178.203 47.5708H176.524L171.901 35.2559H171.859V47.5708H169.993V32.768Z" fill="#202020"/>
<path d="M194.365 41.1852C194.282 39.5056 193.017 38.1585 191.276 38.1585C189.431 38.1585 188.332 39.5472 188.207 41.1852H194.365ZM196.065 44.1703C195.588 46.534 193.889 47.8193 191.483 47.8193C188.062 47.8193 186.446 45.4562 186.342 42.1803C186.342 38.9669 188.457 36.6035 191.38 36.6035C195.174 36.6035 196.334 40.1488 196.231 42.7401H188.207C188.145 44.6058 189.203 46.2644 191.545 46.2644C192.997 46.2644 194.012 45.5597 194.324 44.1703H196.065Z" fill="#202020"/>
<path d="M202.677 46.2644C205.041 46.2644 205.952 44.2327 205.952 42.2217C205.952 40.1071 204.999 38.1585 202.573 38.1585C200.168 38.1585 199.36 40.2106 199.36 42.3047C199.36 44.3158 200.397 46.2644 202.677 46.2644ZM207.653 47.5707H205.89V46.1196H205.849C205.268 47.3011 203.9 47.8193 202.428 47.8193C199.132 47.8193 197.494 45.2073 197.494 42.1803C197.494 39.1535 199.111 36.6035 202.387 36.6035C203.485 36.6035 205.061 37.018 205.849 38.2826H205.89V32.768H207.653V47.5707Z" fill="#202020"/>
<path d="M210.03 36.8519H211.792V47.5708H210.03V36.8519ZM211.792 34.924H210.03V32.768H211.792V34.924Z" fill="#202020"/>
<path d="M221.629 40.2936C221.359 38.9459 220.426 38.1585 218.975 38.1585C216.425 38.1585 215.637 40.1692 215.637 42.3464C215.637 44.3158 216.529 46.2644 218.768 46.2644C220.468 46.2644 221.484 45.2691 221.712 43.6524H223.516C223.121 46.2644 221.484 47.8193 218.788 47.8193C215.513 47.8193 213.771 45.5387 213.771 42.3464C213.771 39.1325 215.43 36.6035 218.83 36.6035C221.255 36.6035 223.204 37.7434 223.453 40.2936H221.629Z" fill="#202020"/>
<path d="M232.031 42.0351C231.347 42.5329 230.021 42.5536 228.838 42.7608C227.678 42.9681 226.683 43.3828 226.683 44.6888C226.683 45.85 227.678 46.2644 228.756 46.2644C231.078 46.2644 232.031 44.813 232.031 43.8389V42.0351ZM234.893 47.5291C234.582 47.7156 234.187 47.8193 233.628 47.8193C232.716 47.8193 232.136 47.3218 232.136 46.1607C231.161 47.3011 229.855 47.8193 228.362 47.8193C226.413 47.8193 224.817 46.9487 224.817 44.813C224.817 42.3875 226.621 41.8693 228.445 41.5166C230.394 41.1436 232.053 41.268 232.053 39.941C232.053 38.4068 230.788 38.1585 229.669 38.1585C228.175 38.1585 227.077 38.6143 226.994 40.1899H225.232C225.335 37.5362 227.388 36.6035 229.772 36.6035C231.7 36.6035 233.794 37.039 233.794 39.5472V45.0619C233.794 45.8914 233.794 46.2644 234.354 46.2644C234.499 46.2644 234.665 46.2437 234.893 46.1607V47.5291Z" fill="#202020"/>
<path d="M236.519 47.5708H238.281V32.7681H236.519V47.5708Z" fill="#202020"/>
<path d="M247.153 47.5708H249.123V32.7681H247.153V47.5708Z" fill="#202020"/>
<path d="M251.887 36.8519H253.545V38.5523H253.586C254.333 37.2256 255.535 36.6036 257.07 36.6036C259.889 36.6036 260.76 38.2203 260.76 40.522V47.5708H258.997V40.3144C258.997 39.0084 258.169 38.1586 256.821 38.1586C254.686 38.1586 253.648 39.5887 253.648 41.5167V47.5708H251.887V36.8519Z" fill="#202020"/>
<path d="M264.344 44.1913C264.406 45.7669 265.775 46.2644 267.226 46.2644C268.325 46.2644 269.817 46.0158 269.817 44.6681C269.817 43.2998 268.076 43.0715 266.314 42.6778C264.572 42.284 262.81 41.7037 262.81 39.651C262.81 37.4951 264.945 36.6035 266.811 36.6035C269.175 36.6035 271.062 37.3497 271.207 39.9617H269.445C269.32 38.5939 268.117 38.1585 266.956 38.1585C265.9 38.1585 264.676 38.4485 264.676 39.5266C264.676 40.7914 266.542 40.9987 268.18 41.3924C269.942 41.7862 271.683 42.3671 271.683 44.4399C271.683 46.9901 269.299 47.8193 267.122 47.8193C264.717 47.8193 262.686 46.845 262.582 44.1913H264.344Z" fill="#202020"/>
<path d="M275.948 36.8519H278.083V38.4069H275.948V45.062C275.948 45.8707 276.176 46.0159 277.275 46.0159H278.083V47.5708H276.735C274.911 47.5708 274.186 47.1977 274.186 45.2281V38.4069H272.361V36.8519H274.186V33.6387H275.948V36.8519Z" fill="#202020"/>
<path d="M279.806 36.8519H281.568V47.5708H279.806V36.8519ZM281.568 34.924H279.806V32.768H281.568V34.924Z" fill="#202020"/>
<path d="M286.566 36.8519H288.701V38.4069H286.566V45.062C286.566 45.8707 286.794 46.0159 287.893 46.0159H288.701V47.5708H287.354C285.53 47.5708 284.804 47.1977 284.804 45.2281V38.4069H282.979V36.8519H284.804V33.6387H286.566V36.8519Z" fill="#202020"/>
<path d="M299.169 47.5707H297.51V45.8707H297.469C296.722 47.1976 295.52 47.8193 293.986 47.8193C291.167 47.8193 290.296 46.2023 290.296 43.9012V36.8519H292.058V44.1085C292.058 45.4145 292.886 46.2644 294.235 46.2644C296.371 46.2644 297.407 44.8339 297.407 42.906V36.8519H299.169V47.5707Z" fill="#202020"/>
<path d="M304.148 36.8519H306.283V38.4069H304.148V45.062C304.148 45.8707 304.376 46.0159 305.475 46.0159H306.283V47.5708H304.936C303.112 47.5708 302.386 47.1977 302.386 45.2281V38.4069H300.562V36.8519H302.386V33.6387H304.148V36.8519Z" fill="#202020"/>
<path d="M315.129 41.1852C315.046 39.5056 313.78 38.1585 312.039 38.1585C310.194 38.1585 309.095 39.5472 308.971 41.1852H315.129ZM316.828 44.1703C316.352 46.534 314.652 47.8193 312.247 47.8193C308.826 47.8193 307.209 45.4562 307.105 42.1803C307.105 38.9669 309.22 36.6035 312.144 36.6035C315.937 36.6035 317.098 40.1488 316.994 42.7401H308.971C308.909 44.6058 309.966 46.2644 312.309 46.2644C313.76 46.2644 314.776 45.5597 315.087 44.1703H316.828Z" fill="#202020"/>
</svg>
