<?xml version="1.0" encoding="utf-8"?>
<!-- Generator: Adobe Illustrator 27.5.0, SVG Export Plug-In . SVG Version: 6.00 Build 0)  -->
<svg version="1.1" id="Layer_1" xmlns="http://www.w3.org/2000/svg" xmlns:xlink="http://www.w3.org/1999/xlink" x="0px" y="0px"
	 viewBox="0 0 113 34" style="enable-background:new 0 0 113 34;" xml:space="preserve">
<style type="text/css">
	.st0{fill:#188487;}
	.st1{fill:#009A4B;}
	.st2{fill:#4EAB47;}
	.st3{fill:#83BC42;}
</style>
<g id="Symbols">
	<path id="Fill-1" class="st0" d="M0,0.2h9.4V12h0.1c1.6-1.9,3.7-3.2,7.7-3.2c4.4,0,8.4,2.7,8.4,8.3v16.7h-9.4V21
		c0-2.8-0.3-4.8-3.1-4.8c-1.6,0-3.7,0.8-3.7,4.7v12.9H0V0.2"/>
	<path id="Fill-2" class="st1" d="M29.1,0.2h9.4V12h0.1c1.6-1.9,3.7-3.2,7.7-3.2c4.4,0,8.4,2.7,8.4,8.3v16.7h-9.4V21
		c0-2.8-0.3-4.8-3.1-4.8c-1.6,0-3.7,0.8-3.7,4.7v12.9h-9.4V0.2"/>
	<path id="Fill-3" class="st2" d="M58.3,9.7h9v3.2h0.1c1.9-2.8,4.6-3.8,8-3.8c2.7,0,5.5,1.3,6.6,3.8c0.4-0.3,2.3-3.8,8.4-3.8
		c6.3,0,8.4,4.3,8.4,8.2v16.5h-9.4V20.7c0-2.3-0.2-4.3-3.1-4.3c-2.4,0-3.2,1.8-3.2,4.3v13.1h-9.4V20.7c0-2.3-0.2-4.3-3.1-4.3
		c-2.4,0-3.2,1.8-3.2,4.3v13.1h-9.4V9.7"/>
	<polygon id="Fill-4" class="st3" points="102.4,33.8 112.1,33.8 112.1,9.1 102.4,9.1 	"/>
	<path id="Fill-5" class="st3" d="M112.8,6.4C112.9,6,113,5.5,113,5c0-2.7-2.4-4.8-5.3-4.8c-2.9,0-5.3,2.2-5.3,4.8
		c0,0.5,0.1,0.9,0.2,1.4H112.8"/>
</g>
</svg>
