<svg width="251" height="156" viewBox="0 0 251 156" fill="none" xmlns="http://www.w3.org/2000/svg">
<path d="M0.895508 1.98395H21.4097V27.9899H21.6172C25.1395 23.8456 29.6985 20.8412 38.4022 20.8412C48.0379 20.8412 56.8444 26.7467 56.8444 39.0761V75.962H36.3297V47.7788C36.3297 41.5634 35.6044 37.2106 29.5956 37.2106C26.0724 37.2106 21.4097 38.9728 21.4097 47.5717V75.962H0.895508V1.98395Z" fill="#338F98"/>
<path d="M65.8213 1.98395H86.3355V27.9899H86.5435C90.0662 23.8456 94.6247 20.8412 103.328 20.8412C112.964 20.8412 121.771 26.7467 121.771 39.0761V75.962H101.256V47.7788C101.256 41.5634 100.531 37.2106 94.5215 37.2106C90.9987 37.2106 86.3355 38.9728 86.3355 47.5717V75.962H65.8213V1.98395Z" fill="#2EA948"/>
<path d="M130.696 22.1883H150.488V29.3375H150.694C154.838 23.1193 160.848 20.8412 168.308 20.8412C174.11 20.8412 180.326 23.8456 182.813 29.2328C183.642 28.6112 187.786 20.8412 201.152 20.8412C214.932 20.8412 219.595 30.3732 219.595 39.076V75.962H199.08V46.8478C199.08 41.77 198.562 37.2106 192.345 37.2106C187.165 37.2106 185.403 41.2521 185.403 46.8478V75.962H164.889V46.8478C164.889 41.77 164.37 37.2106 158.154 37.2106C152.973 37.2106 151.212 41.2521 151.212 46.8478V75.962H130.696V22.1883Z" fill="#4CB938"/>
<path d="M228.33 75.962H248.845V22.1882H228.33V75.962Z" fill="#7DC92C"/>
<path d="M249.38 15.6004C249.683 14.5855 249.85 13.51 249.85 12.395C249.85 6.17411 244.806 1.13023 238.585 1.13023C232.365 1.13023 227.321 6.17411 227.321 12.395C227.321 13.51 227.487 14.5855 227.791 15.6004H249.38Z" fill="#7DC92C"/>
<path d="M42.7194 112.963L33.8543 143.552H29.3779L22.2683 118.931L14.8953 143.552L10.4628 143.596L1.9049 112.963H6.1619L12.8327 138.9L20.2056 112.963H24.682L31.7039 138.812L38.4185 112.963H42.7194ZM58.0177 143.947C55.7648 143.947 53.7168 143.435 51.8736 142.411C50.0596 141.387 48.626 139.938 47.5727 138.066C46.5487 136.164 46.0366 133.97 46.0366 131.483C46.0366 129.025 46.5633 126.86 47.6166 124.988C48.6991 123.086 50.162 121.638 52.0052 120.643C53.8485 119.619 55.9111 119.107 58.1932 119.107C60.4753 119.107 62.538 119.619 64.3812 120.643C66.2245 121.638 67.6727 123.071 68.726 124.944C69.8086 126.816 70.3498 128.996 70.3498 131.483C70.3498 133.97 69.7939 136.164 68.6821 138.066C67.5996 139.938 66.1221 141.387 64.2496 142.411C62.3771 143.435 60.2998 143.947 58.0177 143.947ZM58.0177 140.436C59.4513 140.436 60.7972 140.099 62.0553 139.426C63.3133 138.753 64.3227 137.744 65.0834 136.398C65.8734 135.052 66.2684 133.414 66.2684 131.483C66.2684 129.552 65.888 127.913 65.1273 126.568C64.3666 125.222 63.3719 124.227 62.143 123.583C60.9142 122.91 59.583 122.574 58.1493 122.574C56.6865 122.574 55.3406 122.91 54.1118 123.583C52.9122 124.227 51.9467 125.222 51.2153 126.568C50.4838 127.913 50.1181 129.552 50.1181 131.483C50.1181 133.443 50.4692 135.096 51.1714 136.442C51.9028 137.788 52.8683 138.797 54.0679 139.47C55.2675 140.114 56.5841 140.436 58.0177 140.436ZM80.0333 123.408C80.7355 122.033 81.7303 120.965 83.0176 120.204C84.3342 119.443 85.9288 119.063 87.8013 119.063V123.188H86.748C82.2715 123.188 80.0333 125.617 80.0333 130.473V143.552H76.0396V119.502H80.0333V123.408ZM106.28 143.552L96.8439 132.931V143.552H92.8503V111.076H96.8439V130.166L106.104 119.502H111.678L100.355 131.483L111.722 143.552H106.28ZM124.389 143.947C122.546 143.947 120.893 143.639 119.43 143.025C117.967 142.381 116.812 141.504 115.963 140.392C115.115 139.251 114.646 137.949 114.559 136.486H118.684C118.801 137.685 119.357 138.666 120.352 139.426C121.376 140.187 122.707 140.567 124.345 140.567C125.867 140.567 127.066 140.231 127.944 139.558C128.822 138.885 129.261 138.037 129.261 137.013C129.261 135.959 128.793 135.184 127.856 134.687C126.92 134.16 125.472 133.648 123.512 133.151C121.727 132.682 120.264 132.214 119.123 131.746C118.011 131.249 117.046 130.532 116.226 129.596C115.436 128.63 115.041 127.372 115.041 125.821C115.041 124.593 115.407 123.466 116.139 122.442C116.87 121.418 117.909 120.614 119.255 120.028C120.6 119.414 122.136 119.107 123.863 119.107C126.525 119.107 128.676 119.78 130.314 121.126C131.952 122.471 132.83 124.315 132.947 126.655H128.954C128.866 125.397 128.354 124.388 127.417 123.627C126.51 122.866 125.282 122.486 123.731 122.486C122.297 122.486 121.156 122.793 120.308 123.408C119.459 124.022 119.035 124.827 119.035 125.821C119.035 126.611 119.284 127.27 119.781 127.796C120.308 128.294 120.952 128.703 121.712 129.025C122.502 129.318 123.585 129.654 124.96 130.035C126.686 130.503 128.09 130.971 129.173 131.439C130.255 131.878 131.177 132.551 131.938 133.458C132.728 134.365 133.137 135.55 133.167 137.013C133.167 138.329 132.801 139.514 132.069 140.567C131.338 141.621 130.299 142.454 128.954 143.069C127.637 143.654 126.116 143.947 124.389 143.947ZM143.237 123.934C144.027 122.559 145.197 121.418 146.748 120.511C148.328 119.575 150.156 119.107 152.234 119.107C154.369 119.107 156.3 119.619 158.027 120.643C159.782 121.667 161.157 123.115 162.152 124.988C163.147 126.831 163.644 128.981 163.644 131.439C163.644 133.867 163.147 136.032 162.152 137.934C161.157 139.836 159.782 141.313 158.027 142.367C156.3 143.42 154.369 143.947 152.234 143.947C150.186 143.947 148.372 143.493 146.792 142.586C145.241 141.65 144.056 140.494 143.237 139.119V154.962H139.243V119.502H143.237V123.934ZM159.563 131.439C159.563 129.625 159.197 128.045 158.466 126.699C157.734 125.353 156.739 124.329 155.481 123.627C154.252 122.925 152.892 122.574 151.4 122.574C149.937 122.574 148.576 122.94 147.318 123.671C146.09 124.373 145.095 125.412 144.334 126.787C143.603 128.133 143.237 129.698 143.237 131.483C143.237 133.297 143.603 134.891 144.334 136.266C145.095 137.612 146.09 138.651 147.318 139.382C148.576 140.085 149.937 140.436 151.4 140.436C152.892 140.436 154.252 140.085 155.481 139.382C156.739 138.651 157.734 137.612 158.466 136.266C159.197 134.891 159.563 133.282 159.563 131.439ZM167.848 131.439C167.848 128.981 168.345 126.831 169.34 124.988C170.335 123.115 171.695 121.667 173.421 120.643C175.177 119.619 177.122 119.107 179.258 119.107C181.365 119.107 183.193 119.56 184.744 120.467C186.295 121.374 187.45 122.515 188.211 123.89V119.502H192.249V143.552H188.211V139.075C187.421 140.48 186.236 141.65 184.656 142.586C183.106 143.493 181.292 143.947 179.214 143.947C177.078 143.947 175.147 143.42 173.421 142.367C171.695 141.313 170.335 139.836 169.34 137.934C168.345 136.032 167.848 133.867 167.848 131.439ZM188.211 131.483C188.211 129.669 187.845 128.089 187.114 126.743C186.382 125.397 185.388 124.373 184.13 123.671C182.901 122.94 181.54 122.574 180.048 122.574C178.556 122.574 177.196 122.925 175.967 123.627C174.738 124.329 173.758 125.353 173.026 126.699C172.295 128.045 171.929 129.625 171.929 131.439C171.929 133.282 172.295 134.891 173.026 136.266C173.758 137.612 174.738 138.651 175.967 139.382C177.196 140.085 178.556 140.436 180.048 140.436C181.54 140.436 182.901 140.085 184.13 139.382C185.388 138.651 186.382 137.612 187.114 136.266C187.845 134.891 188.211 133.297 188.211 131.483ZM197.944 131.483C197.944 128.996 198.442 126.831 199.436 124.988C200.431 123.115 201.806 121.667 203.562 120.643C205.346 119.619 207.38 119.107 209.662 119.107C212.617 119.107 215.045 119.824 216.947 121.257C218.878 122.691 220.151 124.68 220.765 127.226H216.464C216.055 125.763 215.25 124.607 214.051 123.759C212.88 122.91 211.417 122.486 209.662 122.486C207.38 122.486 205.537 123.276 204.132 124.856C202.728 126.407 202.026 128.616 202.026 131.483C202.026 134.379 202.728 136.618 204.132 138.197C205.537 139.777 207.38 140.567 209.662 140.567C211.417 140.567 212.88 140.158 214.051 139.339C215.221 138.519 216.026 137.349 216.464 135.828H220.765C220.122 138.285 218.834 140.26 216.903 141.752C214.972 143.215 212.559 143.947 209.662 143.947C207.38 143.947 205.346 143.435 203.562 142.411C201.806 141.387 200.431 139.938 199.436 138.066C198.442 136.193 197.944 133.999 197.944 131.483ZM248.476 130.605C248.476 131.366 248.432 132.17 248.345 133.019H229.122C229.269 135.389 230.073 137.247 231.536 138.592C233.028 139.909 234.828 140.567 236.934 140.567C238.66 140.567 240.094 140.172 241.235 139.382C242.405 138.563 243.224 137.481 243.693 136.135H247.994C247.35 138.446 246.062 140.333 244.131 141.796C242.2 143.23 239.801 143.947 236.934 143.947C234.652 143.947 232.604 143.435 230.79 142.411C229.005 141.387 227.601 139.938 226.577 138.066C225.553 136.164 225.041 133.97 225.041 131.483C225.041 128.996 225.538 126.816 226.533 124.944C227.528 123.071 228.917 121.638 230.702 120.643C232.516 119.619 234.593 119.107 236.934 119.107C239.216 119.107 241.235 119.604 242.99 120.599C244.746 121.594 246.092 122.969 247.028 124.724C247.994 126.451 248.476 128.411 248.476 130.605ZM244.351 129.771C244.351 128.25 244.014 126.948 243.342 125.865C242.669 124.754 241.747 123.92 240.577 123.364C239.436 122.779 238.163 122.486 236.759 122.486C234.74 122.486 233.014 123.13 231.58 124.417C230.176 125.704 229.371 127.489 229.166 129.771H244.351Z" fill="#44403C"/>
</svg>
